<?xml version="1.0" encoding="UTF-8" standalone="no"?><!DOCTYPE svg PUBLIC "-//W3C//DTD SVG 1.1//EN" "http://www.w3.org/Graphics/SVG/1.1/DTD/svg11.dtd"><svg width="100%" height="100%" viewBox="0 0 180 180" version="1.1" xmlns="http://www.w3.org/2000/svg" xmlns:xlink="http://www.w3.org/1999/xlink" xml:space="preserve" xmlns:serif="http://www.serif.com/" style="fill-rule:evenodd;clip-rule:evenodd;stroke-linejoin:round;stroke-miterlimit:2;"><path d="M93.266,174.375l-89.637,-71.492l0.363,-99.073l110.323,106.694l-5.444,51.169l52.258,-67.137l-6.895,-5.443l-1.452,-15.968l-18.871,-14.516l-22.863,-1.089l-53.346,-42.822l-19.597,15.604l20.685,-21.048l52.258,42.097l23.226,0.363l25.041,18.871l0.725,14.879l9.436,8.709l-65.646,80.551l4.678,-62.043l-97.258,-95.08l-0.363,79.839l82.379,76.935Z" style="fill:url(#_Linear1);"/><path d="M111.904,151.149l29.758,-53.347l-82.665,-68.693l-13.867,8.814l13.79,-13.427l89.274,73.306c0,0 -37.016,53.71 -36.29,53.347Z" style="fill:url(#_Linear2);"/><path d="M111.904,143.891l17.782,-45l-73.306,-63.145l79.839,63.145c0,0 -25.041,45.363 -24.315,45Z" style="fill:url(#_Linear3);"/><path d="M114.807,130.827l4.355,-28.67l-66.774,-60.242l71.492,58.428c0,0 -9.799,30.847 -9.073,30.484Z" style="fill:url(#_Linear4);"/><defs><linearGradient id="_Linear1" x1="0" y1="0" x2="1" y2="0" gradientUnits="userSpaceOnUse" gradientTransform="matrix(165.847,0,0,170.914,3.62903,89.2675)"><stop offset="0" style="stop-color:#ff8c00;stop-opacity:1"/><stop offset="0.23" style="stop-color:#ffcd00;stop-opacity:1"/><stop offset="0.5" style="stop-color:#ff5b00;stop-opacity:1"/><stop offset="0.7" style="stop-color:#ffc100;stop-opacity:1"/><stop offset="1" style="stop-color:#ff4600;stop-opacity:1"/></linearGradient><linearGradient id="_Linear2" x1="0" y1="0" x2="1" y2="0" gradientUnits="userSpaceOnUse" gradientTransform="matrix(97.2581,0,0,121.937,50.9363,85.4647)"><stop offset="0" style="stop-color:#9f9f9f;stop-opacity:1"/><stop offset="0.16" style="stop-color:#d6d6d6;stop-opacity:1"/><stop offset="0.28" style="stop-color:#b0b0b0;stop-opacity:1"/><stop offset="0.52" style="stop-color:#e8e8e8;stop-opacity:1"/><stop offset="0.89" style="stop-color:#9f9f9f;stop-opacity:1"/><stop offset="1" style="stop-color:#bfbfbf;stop-opacity:1"/></linearGradient><linearGradient id="_Linear3" x1="0" y1="0" x2="1" y2="0" gradientUnits="userSpaceOnUse" gradientTransform="matrix(78.0242,0,0,105.97,58.1944,87.2794)"><stop offset="0" style="stop-color:#a3a3a3;stop-opacity:1"/><stop offset="0.24" style="stop-color:#d1d1d1;stop-opacity:1"/><stop offset="0.56" style="stop-color:#a3a3a3;stop-opacity:1"/><stop offset="0.83" style="stop-color:#dadada;stop-opacity:1"/><stop offset="1" style="stop-color:#bfbfbf;stop-opacity:1"/></linearGradient><linearGradient id="_Linear4" x1="0" y1="0" x2="1" y2="0" gradientUnits="userSpaceOnUse" gradientTransform="matrix(67.1371,0,0,84.923,56.7427,84.7397)"><stop offset="0" style="stop-color:#a3a3a3;stop-opacity:1"/><stop offset="0.23" style="stop-color:#c9c9c9;stop-opacity:1"/><stop offset="0.5" style="stop-color:#999;stop-opacity:1"/><stop offset="0.8" style="stop-color:#dbdbdb;stop-opacity:1"/><stop offset="1" style="stop-color:#bfbfbf;stop-opacity:1"/></linearGradient></defs></svg>